<mxfile host="Electron" agent="Mozilla/5.0 (Windows NT 10.0; Win64; x64) AppleWebKit/537.36 (KHTML, like Gecko) draw.io/24.7.5 Chrome/126.0.6478.183 Electron/31.3.0 Safari/537.36" version="24.7.5" pages="3">
  <diagram id="36iQDaJeKuae20POll0c" name="第 2 页">
    <mxGraphModel dx="1434" dy="844" grid="1" gridSize="10" guides="1" tooltips="1" connect="1" arrows="1" fold="1" page="1" pageScale="1" pageWidth="1169" pageHeight="827" math="0" shadow="0">
      <root>
        <mxCell id="0" />
        <mxCell id="1" parent="0" />
        <mxCell id="y0HUL4Aq6U30iUflK9Pi-18" style="edgeStyle=orthogonalEdgeStyle;rounded=0;orthogonalLoop=1;jettySize=auto;html=1;" parent="1" source="y0HUL4Aq6U30iUflK9Pi-1" target="y0HUL4Aq6U30iUflK9Pi-3" edge="1">
          <mxGeometry relative="1" as="geometry" />
        </mxCell>
        <mxCell id="y0HUL4Aq6U30iUflK9Pi-20" style="edgeStyle=orthogonalEdgeStyle;rounded=0;orthogonalLoop=1;jettySize=auto;html=1;endArrow=none;endFill=0;dashed=1;" parent="1" source="y0HUL4Aq6U30iUflK9Pi-1" target="y0HUL4Aq6U30iUflK9Pi-7" edge="1">
          <mxGeometry relative="1" as="geometry" />
        </mxCell>
        <mxCell id="y0HUL4Aq6U30iUflK9Pi-1" value="用戶 A&amp;nbsp;" style="verticalLabelPosition=bottom;aspect=fixed;html=1;shape=mxgraph.salesforce.web;" parent="1" vertex="1">
          <mxGeometry x="230" y="120" width="60" height="47.400000000000006" as="geometry" />
        </mxCell>
        <mxCell id="y0HUL4Aq6U30iUflK9Pi-21" style="edgeStyle=orthogonalEdgeStyle;rounded=0;orthogonalLoop=1;jettySize=auto;html=1;endArrow=none;endFill=0;dashed=1;" parent="1" source="y0HUL4Aq6U30iUflK9Pi-2" target="y0HUL4Aq6U30iUflK9Pi-9" edge="1">
          <mxGeometry relative="1" as="geometry">
            <mxPoint x="180" y="280" as="targetPoint" />
          </mxGeometry>
        </mxCell>
        <mxCell id="y0HUL4Aq6U30iUflK9Pi-2" value="用戶 B" style="verticalLabelPosition=bottom;aspect=fixed;html=1;shape=mxgraph.salesforce.web;" parent="1" vertex="1">
          <mxGeometry x="230" y="250" width="60" height="47.400000000000006" as="geometry" />
        </mxCell>
        <mxCell id="y0HUL4Aq6U30iUflK9Pi-22" style="edgeStyle=orthogonalEdgeStyle;rounded=0;orthogonalLoop=1;jettySize=auto;html=1;entryX=0.5;entryY=0;entryDx=0;entryDy=0;dashed=1;" parent="1" source="y0HUL4Aq6U30iUflK9Pi-3" target="y0HUL4Aq6U30iUflK9Pi-11" edge="1">
          <mxGeometry relative="1" as="geometry" />
        </mxCell>
        <mxCell id="y0HUL4Aq6U30iUflK9Pi-3" value="伺服器" style="image;aspect=fixed;perimeter=ellipsePerimeter;html=1;align=center;shadow=0;dashed=0;spacingTop=3;image=img/lib/active_directory/web_server.svg;" parent="1" vertex="1">
          <mxGeometry x="450" y="120" width="112" height="140" as="geometry" />
        </mxCell>
        <mxCell id="y0HUL4Aq6U30iUflK9Pi-6" value="Cookie" style="swimlane;fontStyle=0;childLayout=stackLayout;horizontal=1;startSize=20;fillColor=#ffffff;horizontalStack=0;resizeParent=1;resizeParentMax=0;resizeLast=0;collapsible=0;marginBottom=0;swimlaneFillColor=#ffffff;" parent="1" vertex="1">
          <mxGeometry x="170" y="30" width="44.88" height="70" as="geometry" />
        </mxCell>
        <mxCell id="y0HUL4Aq6U30iUflK9Pi-7" value="" style="sketch=0;outlineConnect=0;fontColor=#232F3E;gradientColor=none;fillColor=#232F3D;strokeColor=none;dashed=0;verticalLabelPosition=bottom;verticalAlign=top;align=center;html=1;fontSize=12;fontStyle=0;aspect=fixed;pointerEvents=1;shape=mxgraph.aws4.corporate_data_center;" parent="y0HUL4Aq6U30iUflK9Pi-6" vertex="1">
          <mxGeometry y="20" width="44.88" height="50" as="geometry" />
        </mxCell>
        <mxCell id="y0HUL4Aq6U30iUflK9Pi-8" value="Cookie" style="swimlane;fontStyle=0;childLayout=stackLayout;horizontal=1;startSize=20;fillColor=#ffffff;horizontalStack=0;resizeParent=1;resizeParentMax=0;resizeLast=0;collapsible=0;marginBottom=0;swimlaneFillColor=#ffffff;" parent="1" vertex="1">
          <mxGeometry x="170" y="167.4" width="44.88" height="70" as="geometry" />
        </mxCell>
        <mxCell id="y0HUL4Aq6U30iUflK9Pi-9" value="" style="sketch=0;outlineConnect=0;fontColor=#232F3E;gradientColor=none;fillColor=#232F3D;strokeColor=none;dashed=0;verticalLabelPosition=bottom;verticalAlign=top;align=center;html=1;fontSize=12;fontStyle=0;aspect=fixed;pointerEvents=1;shape=mxgraph.aws4.corporate_data_center;" parent="y0HUL4Aq6U30iUflK9Pi-8" vertex="1">
          <mxGeometry y="20" width="44.88" height="50" as="geometry" />
        </mxCell>
        <mxCell id="y0HUL4Aq6U30iUflK9Pi-11" value="Session - 用戶 A" style="swimlane;fontStyle=0;childLayout=stackLayout;horizontal=1;startSize=20;fillColor=#ffffff;horizontalStack=0;resizeParent=1;resizeParentMax=0;resizeLast=0;collapsible=0;marginBottom=0;swimlaneFillColor=#ffffff;" parent="1" vertex="1">
          <mxGeometry x="640" y="30" width="105" height="70" as="geometry" />
        </mxCell>
        <mxCell id="y0HUL4Aq6U30iUflK9Pi-12" value="" style="sketch=0;outlineConnect=0;fontColor=#232F3E;gradientColor=none;fillColor=#232F3D;strokeColor=none;dashed=0;verticalLabelPosition=bottom;verticalAlign=top;align=center;html=1;fontSize=12;fontStyle=0;aspect=fixed;pointerEvents=1;shape=mxgraph.aws4.corporate_data_center;" parent="y0HUL4Aq6U30iUflK9Pi-11" vertex="1">
          <mxGeometry y="20" width="105" height="50" as="geometry" />
        </mxCell>
        <mxCell id="y0HUL4Aq6U30iUflK9Pi-14" value="Session - 用戶 B" style="swimlane;fontStyle=0;childLayout=stackLayout;horizontal=1;startSize=20;fillColor=#ffffff;horizontalStack=0;resizeParent=1;resizeParentMax=0;resizeLast=0;collapsible=0;marginBottom=0;swimlaneFillColor=#ffffff;" parent="1" vertex="1">
          <mxGeometry x="640" y="108.69999999999999" width="105" height="70" as="geometry" />
        </mxCell>
        <mxCell id="y0HUL4Aq6U30iUflK9Pi-15" value="" style="sketch=0;outlineConnect=0;fontColor=#232F3E;gradientColor=none;fillColor=#232F3D;strokeColor=none;dashed=0;verticalLabelPosition=bottom;verticalAlign=top;align=center;html=1;fontSize=12;fontStyle=0;aspect=fixed;pointerEvents=1;shape=mxgraph.aws4.corporate_data_center;" parent="y0HUL4Aq6U30iUflK9Pi-14" vertex="1">
          <mxGeometry y="20" width="105" height="50" as="geometry" />
        </mxCell>
        <mxCell id="y0HUL4Aq6U30iUflK9Pi-19" style="edgeStyle=orthogonalEdgeStyle;rounded=0;orthogonalLoop=1;jettySize=auto;html=1;entryX=0;entryY=0.664;entryDx=0;entryDy=0;entryPerimeter=0;" parent="1" source="y0HUL4Aq6U30iUflK9Pi-2" target="y0HUL4Aq6U30iUflK9Pi-3" edge="1">
          <mxGeometry relative="1" as="geometry" />
        </mxCell>
        <mxCell id="y0HUL4Aq6U30iUflK9Pi-23" value="&lt;b&gt;&lt;font style=&quot;font-size: 22px;&quot;&gt;1&lt;/font&gt;&lt;/b&gt;" style="ellipse;whiteSpace=wrap;html=1;aspect=fixed;" parent="1" vertex="1">
          <mxGeometry x="350" y="100" width="40" height="40" as="geometry" />
        </mxCell>
        <mxCell id="y0HUL4Aq6U30iUflK9Pi-24" value="&lt;b&gt;&lt;font style=&quot;font-size: 22px;&quot;&gt;2&lt;/font&gt;&lt;/b&gt;" style="ellipse;whiteSpace=wrap;html=1;aspect=fixed;" parent="1" vertex="1">
          <mxGeometry x="545" y="50" width="40" height="40" as="geometry" />
        </mxCell>
        <mxCell id="y0HUL4Aq6U30iUflK9Pi-25" value="&lt;b&gt;&lt;font style=&quot;font-size: 22px;&quot;&gt;3&lt;/font&gt;&lt;/b&gt;" style="ellipse;whiteSpace=wrap;html=1;aspect=fixed;" parent="1" vertex="1">
          <mxGeometry x="120" y="90" width="40" height="40" as="geometry" />
        </mxCell>
      </root>
    </mxGraphModel>
  </diagram>
  <diagram id="HvnVh_ahCM78XvNqjFqs" name="第 3 页">
    <mxGraphModel dx="1425" dy="844" grid="1" gridSize="10" guides="1" tooltips="1" connect="1" arrows="1" fold="1" page="1" pageScale="1" pageWidth="1169" pageHeight="827" math="0" shadow="0">
      <root>
        <mxCell id="0" />
        <mxCell id="1" parent="0" />
        <mxCell id="vTTrA9_bk5UIa2ng82IA-1" style="edgeStyle=orthogonalEdgeStyle;rounded=0;orthogonalLoop=1;jettySize=auto;html=1;" edge="1" parent="1" source="vTTrA9_bk5UIa2ng82IA-3" target="vTTrA9_bk5UIa2ng82IA-7">
          <mxGeometry relative="1" as="geometry" />
        </mxCell>
        <mxCell id="vTTrA9_bk5UIa2ng82IA-2" style="edgeStyle=orthogonalEdgeStyle;rounded=0;orthogonalLoop=1;jettySize=auto;html=1;endArrow=none;endFill=0;dashed=1;" edge="1" parent="1" source="vTTrA9_bk5UIa2ng82IA-3" target="vTTrA9_bk5UIa2ng82IA-9">
          <mxGeometry relative="1" as="geometry" />
        </mxCell>
        <mxCell id="vTTrA9_bk5UIa2ng82IA-3" value="用戶 A&amp;nbsp;" style="verticalLabelPosition=bottom;aspect=fixed;html=1;shape=mxgraph.salesforce.web;" vertex="1" parent="1">
          <mxGeometry x="230" y="120" width="60" height="47.400000000000006" as="geometry" />
        </mxCell>
        <mxCell id="vTTrA9_bk5UIa2ng82IA-4" style="edgeStyle=orthogonalEdgeStyle;rounded=0;orthogonalLoop=1;jettySize=auto;html=1;endArrow=none;endFill=0;dashed=1;" edge="1" parent="1" source="vTTrA9_bk5UIa2ng82IA-5" target="vTTrA9_bk5UIa2ng82IA-11">
          <mxGeometry relative="1" as="geometry">
            <mxPoint x="180" y="280" as="targetPoint" />
          </mxGeometry>
        </mxCell>
        <mxCell id="vTTrA9_bk5UIa2ng82IA-5" value="用戶 B" style="verticalLabelPosition=bottom;aspect=fixed;html=1;shape=mxgraph.salesforce.web;" vertex="1" parent="1">
          <mxGeometry x="230" y="250" width="60" height="47.400000000000006" as="geometry" />
        </mxCell>
        <mxCell id="vTTrA9_bk5UIa2ng82IA-6" style="edgeStyle=orthogonalEdgeStyle;rounded=0;orthogonalLoop=1;jettySize=auto;html=1;entryX=0.5;entryY=0;entryDx=0;entryDy=0;dashed=1;" edge="1" parent="1" source="vTTrA9_bk5UIa2ng82IA-7" target="vTTrA9_bk5UIa2ng82IA-12">
          <mxGeometry relative="1" as="geometry" />
        </mxCell>
        <mxCell id="vTTrA9_bk5UIa2ng82IA-21" style="edgeStyle=orthogonalEdgeStyle;rounded=0;orthogonalLoop=1;jettySize=auto;html=1;" edge="1" parent="1" source="vTTrA9_bk5UIa2ng82IA-7">
          <mxGeometry relative="1" as="geometry">
            <mxPoint x="506" y="320" as="targetPoint" />
          </mxGeometry>
        </mxCell>
        <mxCell id="vTTrA9_bk5UIa2ng82IA-7" value="伺服器" style="image;aspect=fixed;perimeter=ellipsePerimeter;html=1;align=center;shadow=0;dashed=0;spacingTop=3;image=img/lib/active_directory/web_server.svg;" vertex="1" parent="1">
          <mxGeometry x="450" y="120" width="112" height="140" as="geometry" />
        </mxCell>
        <mxCell id="vTTrA9_bk5UIa2ng82IA-8" value="Cookie" style="swimlane;fontStyle=0;childLayout=stackLayout;horizontal=1;startSize=20;fillColor=#ffffff;horizontalStack=0;resizeParent=1;resizeParentMax=0;resizeLast=0;collapsible=0;marginBottom=0;swimlaneFillColor=#ffffff;" vertex="1" parent="1">
          <mxGeometry x="170" y="30" width="44.88" height="70" as="geometry" />
        </mxCell>
        <mxCell id="vTTrA9_bk5UIa2ng82IA-9" value="" style="sketch=0;outlineConnect=0;fontColor=#232F3E;gradientColor=none;fillColor=#232F3D;strokeColor=none;dashed=0;verticalLabelPosition=bottom;verticalAlign=top;align=center;html=1;fontSize=12;fontStyle=0;aspect=fixed;pointerEvents=1;shape=mxgraph.aws4.corporate_data_center;" vertex="1" parent="vTTrA9_bk5UIa2ng82IA-8">
          <mxGeometry y="20" width="44.88" height="50" as="geometry" />
        </mxCell>
        <mxCell id="vTTrA9_bk5UIa2ng82IA-10" value="Cookie" style="swimlane;fontStyle=0;childLayout=stackLayout;horizontal=1;startSize=20;fillColor=#ffffff;horizontalStack=0;resizeParent=1;resizeParentMax=0;resizeLast=0;collapsible=0;marginBottom=0;swimlaneFillColor=#ffffff;" vertex="1" parent="1">
          <mxGeometry x="170" y="167.4" width="44.88" height="70" as="geometry" />
        </mxCell>
        <mxCell id="vTTrA9_bk5UIa2ng82IA-11" value="" style="sketch=0;outlineConnect=0;fontColor=#232F3E;gradientColor=none;fillColor=#232F3D;strokeColor=none;dashed=0;verticalLabelPosition=bottom;verticalAlign=top;align=center;html=1;fontSize=12;fontStyle=0;aspect=fixed;pointerEvents=1;shape=mxgraph.aws4.corporate_data_center;" vertex="1" parent="vTTrA9_bk5UIa2ng82IA-10">
          <mxGeometry y="20" width="44.88" height="50" as="geometry" />
        </mxCell>
        <mxCell id="vTTrA9_bk5UIa2ng82IA-12" value="Session - 用戶 A" style="swimlane;fontStyle=0;childLayout=stackLayout;horizontal=1;startSize=20;fillColor=#ffffff;horizontalStack=0;resizeParent=1;resizeParentMax=0;resizeLast=0;collapsible=0;marginBottom=0;swimlaneFillColor=#ffffff;" vertex="1" parent="1">
          <mxGeometry x="640" y="30" width="105" height="70" as="geometry" />
        </mxCell>
        <mxCell id="vTTrA9_bk5UIa2ng82IA-13" value="" style="sketch=0;outlineConnect=0;fontColor=#232F3E;gradientColor=none;fillColor=#232F3D;strokeColor=none;dashed=0;verticalLabelPosition=bottom;verticalAlign=top;align=center;html=1;fontSize=12;fontStyle=0;aspect=fixed;pointerEvents=1;shape=mxgraph.aws4.corporate_data_center;" vertex="1" parent="vTTrA9_bk5UIa2ng82IA-12">
          <mxGeometry y="20" width="105" height="50" as="geometry" />
        </mxCell>
        <mxCell id="vTTrA9_bk5UIa2ng82IA-14" value="Session - 用戶 B" style="swimlane;fontStyle=0;childLayout=stackLayout;horizontal=1;startSize=20;fillColor=#ffffff;horizontalStack=0;resizeParent=1;resizeParentMax=0;resizeLast=0;collapsible=0;marginBottom=0;swimlaneFillColor=#ffffff;" vertex="1" parent="1">
          <mxGeometry x="640" y="108.69999999999999" width="105" height="70" as="geometry" />
        </mxCell>
        <mxCell id="vTTrA9_bk5UIa2ng82IA-15" value="" style="sketch=0;outlineConnect=0;fontColor=#232F3E;gradientColor=none;fillColor=#232F3D;strokeColor=none;dashed=0;verticalLabelPosition=bottom;verticalAlign=top;align=center;html=1;fontSize=12;fontStyle=0;aspect=fixed;pointerEvents=1;shape=mxgraph.aws4.corporate_data_center;" vertex="1" parent="vTTrA9_bk5UIa2ng82IA-14">
          <mxGeometry y="20" width="105" height="50" as="geometry" />
        </mxCell>
        <mxCell id="vTTrA9_bk5UIa2ng82IA-16" style="edgeStyle=orthogonalEdgeStyle;rounded=0;orthogonalLoop=1;jettySize=auto;html=1;entryX=0;entryY=0.664;entryDx=0;entryDy=0;entryPerimeter=0;" edge="1" parent="1" source="vTTrA9_bk5UIa2ng82IA-5" target="vTTrA9_bk5UIa2ng82IA-7">
          <mxGeometry relative="1" as="geometry" />
        </mxCell>
        <mxCell id="vTTrA9_bk5UIa2ng82IA-37" style="edgeStyle=orthogonalEdgeStyle;rounded=0;orthogonalLoop=1;jettySize=auto;html=1;entryX=0.5;entryY=0;entryDx=0;entryDy=0;" edge="1" parent="1" source="vTTrA9_bk5UIa2ng82IA-20" target="vTTrA9_bk5UIa2ng82IA-28">
          <mxGeometry relative="1" as="geometry" />
        </mxCell>
        <mxCell id="vTTrA9_bk5UIa2ng82IA-20" value="" style="sketch=0;pointerEvents=1;shadow=0;dashed=0;html=1;strokeColor=none;fillColor=#DF8C42;labelPosition=center;verticalLabelPosition=bottom;verticalAlign=top;align=center;outlineConnect=0;shape=mxgraph.veeam2.restored;" vertex="1" parent="1">
          <mxGeometry x="471" y="330" width="70" height="70" as="geometry" />
        </mxCell>
        <mxCell id="vTTrA9_bk5UIa2ng82IA-22" style="edgeStyle=orthogonalEdgeStyle;rounded=0;orthogonalLoop=1;jettySize=auto;html=1;" edge="1" parent="1" source="vTTrA9_bk5UIa2ng82IA-24" target="vTTrA9_bk5UIa2ng82IA-28">
          <mxGeometry relative="1" as="geometry" />
        </mxCell>
        <mxCell id="vTTrA9_bk5UIa2ng82IA-23" style="edgeStyle=orthogonalEdgeStyle;rounded=0;orthogonalLoop=1;jettySize=auto;html=1;endArrow=none;endFill=0;dashed=1;" edge="1" parent="1" source="vTTrA9_bk5UIa2ng82IA-24" target="vTTrA9_bk5UIa2ng82IA-30">
          <mxGeometry relative="1" as="geometry" />
        </mxCell>
        <mxCell id="vTTrA9_bk5UIa2ng82IA-24" value="用戶 A&amp;nbsp;" style="verticalLabelPosition=bottom;aspect=fixed;html=1;shape=mxgraph.salesforce.web;" vertex="1" parent="1">
          <mxGeometry x="230" y="480" width="60" height="47.400000000000006" as="geometry" />
        </mxCell>
        <mxCell id="vTTrA9_bk5UIa2ng82IA-25" style="edgeStyle=orthogonalEdgeStyle;rounded=0;orthogonalLoop=1;jettySize=auto;html=1;endArrow=none;endFill=0;dashed=1;" edge="1" parent="1" source="vTTrA9_bk5UIa2ng82IA-26" target="vTTrA9_bk5UIa2ng82IA-32">
          <mxGeometry relative="1" as="geometry">
            <mxPoint x="180" y="640" as="targetPoint" />
          </mxGeometry>
        </mxCell>
        <mxCell id="vTTrA9_bk5UIa2ng82IA-26" value="用戶 B" style="verticalLabelPosition=bottom;aspect=fixed;html=1;shape=mxgraph.salesforce.web;" vertex="1" parent="1">
          <mxGeometry x="230" y="610" width="60" height="47.400000000000006" as="geometry" />
        </mxCell>
        <mxCell id="vTTrA9_bk5UIa2ng82IA-27" style="edgeStyle=orthogonalEdgeStyle;rounded=0;orthogonalLoop=1;jettySize=auto;html=1;" edge="1" parent="1" source="vTTrA9_bk5UIa2ng82IA-28">
          <mxGeometry relative="1" as="geometry">
            <mxPoint x="506" y="680" as="targetPoint" />
          </mxGeometry>
        </mxCell>
        <mxCell id="vTTrA9_bk5UIa2ng82IA-28" value="伺服器" style="image;aspect=fixed;perimeter=ellipsePerimeter;html=1;align=center;shadow=0;dashed=0;spacingTop=3;image=img/lib/active_directory/web_server.svg;" vertex="1" parent="1">
          <mxGeometry x="450" y="480" width="112" height="140" as="geometry" />
        </mxCell>
        <mxCell id="vTTrA9_bk5UIa2ng82IA-29" value="Cookie" style="swimlane;fontStyle=0;childLayout=stackLayout;horizontal=1;startSize=20;fillColor=#ffffff;horizontalStack=0;resizeParent=1;resizeParentMax=0;resizeLast=0;collapsible=0;marginBottom=0;swimlaneFillColor=#ffffff;" vertex="1" parent="1">
          <mxGeometry x="170" y="390" width="44.88" height="70" as="geometry" />
        </mxCell>
        <mxCell id="vTTrA9_bk5UIa2ng82IA-30" value="" style="sketch=0;outlineConnect=0;fontColor=#232F3E;gradientColor=none;fillColor=#232F3D;strokeColor=none;dashed=0;verticalLabelPosition=bottom;verticalAlign=top;align=center;html=1;fontSize=12;fontStyle=0;aspect=fixed;pointerEvents=1;shape=mxgraph.aws4.corporate_data_center;" vertex="1" parent="vTTrA9_bk5UIa2ng82IA-29">
          <mxGeometry y="20" width="44.88" height="50" as="geometry" />
        </mxCell>
        <mxCell id="vTTrA9_bk5UIa2ng82IA-31" value="Cookie" style="swimlane;fontStyle=0;childLayout=stackLayout;horizontal=1;startSize=20;fillColor=#ffffff;horizontalStack=0;resizeParent=1;resizeParentMax=0;resizeLast=0;collapsible=0;marginBottom=0;swimlaneFillColor=#ffffff;" vertex="1" parent="1">
          <mxGeometry x="170" y="527.4" width="44.88" height="70" as="geometry" />
        </mxCell>
        <mxCell id="vTTrA9_bk5UIa2ng82IA-32" value="" style="sketch=0;outlineConnect=0;fontColor=#232F3E;gradientColor=none;fillColor=#232F3D;strokeColor=none;dashed=0;verticalLabelPosition=bottom;verticalAlign=top;align=center;html=1;fontSize=12;fontStyle=0;aspect=fixed;pointerEvents=1;shape=mxgraph.aws4.corporate_data_center;" vertex="1" parent="vTTrA9_bk5UIa2ng82IA-31">
          <mxGeometry y="20" width="44.88" height="50" as="geometry" />
        </mxCell>
        <mxCell id="vTTrA9_bk5UIa2ng82IA-33" style="edgeStyle=orthogonalEdgeStyle;rounded=0;orthogonalLoop=1;jettySize=auto;html=1;entryX=0;entryY=0.664;entryDx=0;entryDy=0;entryPerimeter=0;" edge="1" parent="1" source="vTTrA9_bk5UIa2ng82IA-26" target="vTTrA9_bk5UIa2ng82IA-28">
          <mxGeometry relative="1" as="geometry" />
        </mxCell>
        <mxCell id="vTTrA9_bk5UIa2ng82IA-34" value="" style="sketch=0;pointerEvents=1;shadow=0;dashed=0;html=1;strokeColor=none;fillColor=#DF8C42;labelPosition=center;verticalLabelPosition=bottom;verticalAlign=top;align=center;outlineConnect=0;shape=mxgraph.veeam2.restored;" vertex="1" parent="1">
          <mxGeometry x="471" y="690" width="70" height="70" as="geometry" />
        </mxCell>
        <mxCell id="hp_RnMlvWdHB2fhUzzbv-1" value="&lt;span style=&quot;font-size: 22px;&quot;&gt;&lt;b&gt;1. &lt;br&gt;進行&lt;br&gt;重啟&lt;/b&gt;&lt;/span&gt;" style="ellipse;whiteSpace=wrap;html=1;aspect=fixed;" vertex="1" parent="1">
          <mxGeometry x="570" y="326" width="90" height="90" as="geometry" />
        </mxCell>
        <mxCell id="hp_RnMlvWdHB2fhUzzbv-2" value="&lt;span style=&quot;font-size: 22px;&quot;&gt;&lt;b&gt;2. &lt;br&gt;遺失&lt;/b&gt;&lt;/span&gt;&lt;div&gt;&lt;span style=&quot;font-size: 22px;&quot;&gt;&lt;b&gt;Session&lt;/b&gt;&lt;/span&gt;&lt;/div&gt;" style="ellipse;whiteSpace=wrap;html=1;aspect=fixed;" vertex="1" parent="1">
          <mxGeometry x="570" y="610" width="90" height="90" as="geometry" />
        </mxCell>
        <mxCell id="hp_RnMlvWdHB2fhUzzbv-3" style="edgeStyle=orthogonalEdgeStyle;rounded=0;orthogonalLoop=1;jettySize=auto;html=1;entryX=0.5;entryY=0;entryDx=0;entryDy=0;dashed=1;exitX=0.964;exitY=0.779;exitDx=0;exitDy=0;exitPerimeter=0;" edge="1" parent="1" target="hp_RnMlvWdHB2fhUzzbv-4" source="vTTrA9_bk5UIa2ng82IA-28">
          <mxGeometry relative="1" as="geometry">
            <mxPoint x="690" y="640" as="sourcePoint" />
          </mxGeometry>
        </mxCell>
        <mxCell id="hp_RnMlvWdHB2fhUzzbv-4" value="Session - 用戶 A" style="swimlane;fontStyle=0;childLayout=stackLayout;horizontal=1;startSize=20;fillColor=#ffffff;horizontalStack=0;resizeParent=1;resizeParentMax=0;resizeLast=0;collapsible=0;marginBottom=0;swimlaneFillColor=#ffffff;" vertex="1" parent="1">
          <mxGeometry x="720" y="508.7" width="105" height="70" as="geometry" />
        </mxCell>
        <mxCell id="hp_RnMlvWdHB2fhUzzbv-6" value="Session - 用戶 B" style="swimlane;fontStyle=0;childLayout=stackLayout;horizontal=1;startSize=20;fillColor=#ffffff;horizontalStack=0;resizeParent=1;resizeParentMax=0;resizeLast=0;collapsible=0;marginBottom=0;swimlaneFillColor=#ffffff;" vertex="1" parent="1">
          <mxGeometry x="720" y="587.4" width="105" height="70" as="geometry" />
        </mxCell>
      </root>
    </mxGraphModel>
  </diagram>
  <diagram id="Rv0VNGRUjwb1O_cnUlSf" name="第 4 页">
    <mxGraphModel dx="1425" dy="844" grid="1" gridSize="10" guides="1" tooltips="1" connect="1" arrows="1" fold="1" page="1" pageScale="1" pageWidth="1169" pageHeight="827" math="0" shadow="0">
      <root>
        <mxCell id="0" />
        <mxCell id="1" parent="0" />
        <mxCell id="kJw31j2O0Wimkj6-wve6-1" style="edgeStyle=orthogonalEdgeStyle;rounded=0;orthogonalLoop=1;jettySize=auto;html=1;" edge="1" parent="1" source="kJw31j2O0Wimkj6-wve6-3" target="kJw31j2O0Wimkj6-wve6-8">
          <mxGeometry relative="1" as="geometry" />
        </mxCell>
        <mxCell id="kJw31j2O0Wimkj6-wve6-2" style="edgeStyle=orthogonalEdgeStyle;rounded=0;orthogonalLoop=1;jettySize=auto;html=1;endArrow=none;endFill=0;dashed=1;" edge="1" parent="1" source="kJw31j2O0Wimkj6-wve6-3" target="kJw31j2O0Wimkj6-wve6-10">
          <mxGeometry relative="1" as="geometry" />
        </mxCell>
        <mxCell id="kJw31j2O0Wimkj6-wve6-3" value="用戶 A&amp;nbsp;" style="verticalLabelPosition=bottom;aspect=fixed;html=1;shape=mxgraph.salesforce.web;" vertex="1" parent="1">
          <mxGeometry x="230" y="120" width="60" height="47.400000000000006" as="geometry" />
        </mxCell>
        <mxCell id="kJw31j2O0Wimkj6-wve6-4" style="edgeStyle=orthogonalEdgeStyle;rounded=0;orthogonalLoop=1;jettySize=auto;html=1;endArrow=none;endFill=0;dashed=1;" edge="1" parent="1" source="kJw31j2O0Wimkj6-wve6-5" target="kJw31j2O0Wimkj6-wve6-12">
          <mxGeometry relative="1" as="geometry">
            <mxPoint x="180" y="280" as="targetPoint" />
          </mxGeometry>
        </mxCell>
        <mxCell id="kJw31j2O0Wimkj6-wve6-5" value="用戶 B" style="verticalLabelPosition=bottom;aspect=fixed;html=1;shape=mxgraph.salesforce.web;" vertex="1" parent="1">
          <mxGeometry x="230" y="250" width="60" height="47.400000000000006" as="geometry" />
        </mxCell>
        <mxCell id="kJw31j2O0Wimkj6-wve6-6" style="edgeStyle=orthogonalEdgeStyle;rounded=0;orthogonalLoop=1;jettySize=auto;html=1;entryX=0.5;entryY=0;entryDx=0;entryDy=0;dashed=1;" edge="1" parent="1" source="kJw31j2O0Wimkj6-wve6-8" target="kJw31j2O0Wimkj6-wve6-13">
          <mxGeometry relative="1" as="geometry" />
        </mxCell>
        <mxCell id="kJw31j2O0Wimkj6-wve6-7" style="edgeStyle=orthogonalEdgeStyle;rounded=0;orthogonalLoop=1;jettySize=auto;html=1;" edge="1" parent="1" source="kJw31j2O0Wimkj6-wve6-8">
          <mxGeometry relative="1" as="geometry">
            <mxPoint x="506" y="320" as="targetPoint" />
          </mxGeometry>
        </mxCell>
        <mxCell id="kJw31j2O0Wimkj6-wve6-8" value="伺服器" style="image;aspect=fixed;perimeter=ellipsePerimeter;html=1;align=center;shadow=0;dashed=0;spacingTop=3;image=img/lib/active_directory/web_server.svg;" vertex="1" parent="1">
          <mxGeometry x="450" y="120" width="112" height="140" as="geometry" />
        </mxCell>
        <mxCell id="kJw31j2O0Wimkj6-wve6-9" value="Cookie" style="swimlane;fontStyle=0;childLayout=stackLayout;horizontal=1;startSize=20;fillColor=#ffffff;horizontalStack=0;resizeParent=1;resizeParentMax=0;resizeLast=0;collapsible=0;marginBottom=0;swimlaneFillColor=#ffffff;" vertex="1" parent="1">
          <mxGeometry x="170" y="30" width="44.88" height="70" as="geometry" />
        </mxCell>
        <mxCell id="kJw31j2O0Wimkj6-wve6-10" value="" style="sketch=0;outlineConnect=0;fontColor=#232F3E;gradientColor=none;fillColor=#232F3D;strokeColor=none;dashed=0;verticalLabelPosition=bottom;verticalAlign=top;align=center;html=1;fontSize=12;fontStyle=0;aspect=fixed;pointerEvents=1;shape=mxgraph.aws4.corporate_data_center;" vertex="1" parent="kJw31j2O0Wimkj6-wve6-9">
          <mxGeometry y="20" width="44.88" height="50" as="geometry" />
        </mxCell>
        <mxCell id="kJw31j2O0Wimkj6-wve6-11" value="Cookie" style="swimlane;fontStyle=0;childLayout=stackLayout;horizontal=1;startSize=20;fillColor=#ffffff;horizontalStack=0;resizeParent=1;resizeParentMax=0;resizeLast=0;collapsible=0;marginBottom=0;swimlaneFillColor=#ffffff;" vertex="1" parent="1">
          <mxGeometry x="170" y="167.4" width="44.88" height="70" as="geometry" />
        </mxCell>
        <mxCell id="kJw31j2O0Wimkj6-wve6-12" value="" style="sketch=0;outlineConnect=0;fontColor=#232F3E;gradientColor=none;fillColor=#232F3D;strokeColor=none;dashed=0;verticalLabelPosition=bottom;verticalAlign=top;align=center;html=1;fontSize=12;fontStyle=0;aspect=fixed;pointerEvents=1;shape=mxgraph.aws4.corporate_data_center;" vertex="1" parent="kJw31j2O0Wimkj6-wve6-11">
          <mxGeometry y="20" width="44.88" height="50" as="geometry" />
        </mxCell>
        <mxCell id="kJw31j2O0Wimkj6-wve6-13" value="Session - 用戶 A" style="swimlane;fontStyle=0;childLayout=stackLayout;horizontal=1;startSize=20;fillColor=#ffffff;horizontalStack=0;resizeParent=1;resizeParentMax=0;resizeLast=0;collapsible=0;marginBottom=0;swimlaneFillColor=#ffffff;" vertex="1" parent="1">
          <mxGeometry x="640" y="30" width="105" height="70" as="geometry" />
        </mxCell>
        <mxCell id="kJw31j2O0Wimkj6-wve6-14" value="" style="sketch=0;outlineConnect=0;fontColor=#232F3E;gradientColor=none;fillColor=#232F3D;strokeColor=none;dashed=0;verticalLabelPosition=bottom;verticalAlign=top;align=center;html=1;fontSize=12;fontStyle=0;aspect=fixed;pointerEvents=1;shape=mxgraph.aws4.corporate_data_center;" vertex="1" parent="kJw31j2O0Wimkj6-wve6-13">
          <mxGeometry y="20" width="105" height="50" as="geometry" />
        </mxCell>
        <mxCell id="kJw31j2O0Wimkj6-wve6-21" style="edgeStyle=orthogonalEdgeStyle;rounded=0;orthogonalLoop=1;jettySize=auto;html=1;" edge="1" parent="1" source="kJw31j2O0Wimkj6-wve6-15" target="kJw31j2O0Wimkj6-wve6-18">
          <mxGeometry relative="1" as="geometry" />
        </mxCell>
        <mxCell id="kJw31j2O0Wimkj6-wve6-15" value="Session - 用戶 B" style="swimlane;fontStyle=0;childLayout=stackLayout;horizontal=1;startSize=20;fillColor=#ffffff;horizontalStack=0;resizeParent=1;resizeParentMax=0;resizeLast=0;collapsible=0;marginBottom=0;swimlaneFillColor=#ffffff;" vertex="1" parent="1">
          <mxGeometry x="640" y="108.69999999999999" width="105" height="70" as="geometry" />
        </mxCell>
        <mxCell id="kJw31j2O0Wimkj6-wve6-16" value="" style="sketch=0;outlineConnect=0;fontColor=#232F3E;gradientColor=none;fillColor=#232F3D;strokeColor=none;dashed=0;verticalLabelPosition=bottom;verticalAlign=top;align=center;html=1;fontSize=12;fontStyle=0;aspect=fixed;pointerEvents=1;shape=mxgraph.aws4.corporate_data_center;" vertex="1" parent="kJw31j2O0Wimkj6-wve6-15">
          <mxGeometry y="20" width="105" height="50" as="geometry" />
        </mxCell>
        <mxCell id="kJw31j2O0Wimkj6-wve6-17" style="edgeStyle=orthogonalEdgeStyle;rounded=0;orthogonalLoop=1;jettySize=auto;html=1;entryX=0;entryY=0.664;entryDx=0;entryDy=0;entryPerimeter=0;" edge="1" parent="1" source="kJw31j2O0Wimkj6-wve6-5" target="kJw31j2O0Wimkj6-wve6-8">
          <mxGeometry relative="1" as="geometry" />
        </mxCell>
        <mxCell id="kJw31j2O0Wimkj6-wve6-18" value="Redis" style="image;sketch=0;aspect=fixed;html=1;points=[];align=center;fontSize=12;image=img/lib/mscae/Cache_Redis_Product.svg;" vertex="1" parent="1">
          <mxGeometry x="830" y="200" width="71.43" height="60" as="geometry" />
        </mxCell>
        <mxCell id="kJw31j2O0Wimkj6-wve6-20" style="edgeStyle=orthogonalEdgeStyle;rounded=0;orthogonalLoop=1;jettySize=auto;html=1;entryX=0.49;entryY=0.017;entryDx=0;entryDy=0;entryPerimeter=0;" edge="1" parent="1" source="kJw31j2O0Wimkj6-wve6-13" target="kJw31j2O0Wimkj6-wve6-18">
          <mxGeometry relative="1" as="geometry" />
        </mxCell>
        <mxCell id="TlNDQ-km_KhVtOzQxpwP-1" value="&lt;span style=&quot;font-size: 22px;&quot;&gt;&lt;b&gt;寫進Redis&lt;/b&gt;&lt;/span&gt;" style="ellipse;whiteSpace=wrap;html=1;aspect=fixed;" vertex="1" parent="1">
          <mxGeometry x="816.22" y="290" width="99" height="99" as="geometry" />
        </mxCell>
      </root>
    </mxGraphModel>
  </diagram>
</mxfile>
